<svg width="68" height="68" viewBox="0 0 68 68" fill="none" xmlns="http://www.w3.org/2000/svg">
<path d="M14.7399 8.03874C22.5359 13.904 30.9215 25.7962 34.0002 32.1783C37.0792 25.7967 45.4642 13.9039 53.2605 8.03874C58.8857 3.80662 68 0.53205 68 10.9519C68 13.0329 66.8094 28.4333 66.1111 30.9335C63.6839 39.6259 54.8391 41.8429 46.9716 40.5011C60.7239 42.8466 64.2224 50.616 56.667 58.3854C42.318 73.141 36.0432 54.6832 34.4347 49.9536C34.1399 49.0866 34.002 48.681 34 49.0259C33.998 48.681 33.86 49.0866 33.5653 49.9536C31.9575 54.6832 25.6829 73.1415 11.333 58.3854C3.7775 50.616 7.27584 42.8462 21.0284 40.5011C13.1606 41.8429 4.31575 39.6259 1.88886 30.9335C1.19056 28.4331 0 13.0327 0 10.9519C0 0.53205 9.11453 3.80662 14.7395 8.03874H14.7399Z" fill="black"/>
</svg>
