<svg width="68" height="68" viewBox="0 0 68 68" fill="none" xmlns="http://www.w3.org/2000/svg">
<path d="M64.4615 26.2307C63.7883 26.2307 63.1426 26.4982 62.6666 26.9742C62.1905 27.4503 61.9231 28.0959 61.9231 28.7692V49.0769C61.9231 49.7501 61.6556 50.3958 61.1796 50.8718C60.7035 51.3479 60.0579 51.6153 59.3846 51.6153H8.61538C7.94214 51.6153 7.29648 51.3479 6.82042 50.8718C6.34437 50.3958 6.07692 49.7501 6.07692 49.0769V28.7692C6.07692 28.0959 5.80948 27.4503 5.33342 26.9742C4.85737 26.4982 4.2117 26.2307 3.53846 26.2307C2.86522 26.2307 2.21955 26.4982 1.7435 26.9742C1.26744 27.4503 1 28.0959 1 28.7692V49.0769C1.00178 51.0959 1.80528 53.0316 3.23385 54.4584C4.66064 55.887 6.59634 56.6905 8.61538 56.6923H59.3846C61.4037 56.6905 63.3394 55.887 64.7662 54.4584C66.1947 53.0316 66.9982 51.0959 67 49.0769V28.7692C67 28.0959 66.7326 27.4503 66.2565 26.9742C65.7804 26.4982 65.1348 26.2307 64.4615 26.2307Z" fill="black"/>
<path d="M32.4769 40.9538C32.9163 41.2834 33.4507 41.4615 34 41.4615C34.5492 41.4615 35.0836 41.2834 35.523 40.9538L65.5023 18.4631C65.97 18.1104 66.3013 17.6069 66.4401 17.0378C66.5789 16.4687 66.5166 15.8692 66.2638 15.3408C65.8858 14.5597 65.3795 13.8476 64.7661 13.2338C63.3393 11.8053 61.4036 11.0018 59.3846 11H8.61534C6.5963 11.0018 4.6606 11.8053 3.23381 13.2338C2.6204 13.8476 2.11416 14.5597 1.73611 15.3408C1.48332 15.8692 1.42105 16.4687 1.55985 17.0378C1.69864 17.6069 2.02997 18.1104 2.49765 18.4631L32.4769 40.9538ZM8.61534 16.0769H59.3846C59.62 16.0398 59.8599 16.0398 60.0953 16.0769L34 35.75L7.90457 16.0769C8.14005 16.0398 8.37987 16.0398 8.61534 16.0769Z" fill="black"/>
</svg>
