<svg width="68" height="68" viewBox="0 0 68 68" fill="none" xmlns="http://www.w3.org/2000/svg">
<path d="M20.7471 2.2238C17.3423 2.38444 15.0171 2.9278 12.9845 3.72653C10.8808 4.54637 9.09772 5.64653 7.32363 7.42702C5.54953 9.20751 4.45704 10.9918 3.64295 13.0987C2.8551 15.1358 2.32134 17.4629 2.17093 20.8696C2.02053 24.2764 1.98725 25.3714 2.00389 34.0613C2.02053 42.7513 2.05893 43.8406 2.22405 47.2544C2.38662 50.6585 2.92806 52.983 3.72679 55.0163C4.54792 57.12 5.64681 58.9024 7.42795 60.6771C9.20908 62.4518 10.9921 63.5418 13.1042 64.3571C15.1394 65.1437 17.4671 65.68 20.8732 65.8291C24.2793 65.9783 25.3757 66.0128 34.0631 65.9962C42.7505 65.9795 43.8443 65.9411 47.2575 65.7792C50.6706 65.6173 52.983 65.072 55.0169 64.2771C57.1206 63.4541 58.9043 62.3571 60.6778 60.5754C62.4512 58.7936 63.5431 57.008 64.3565 54.8998C65.145 52.8646 65.6807 50.5369 65.8285 47.1334C65.9777 43.7177 66.0129 42.6271 65.9962 33.9385C65.9796 25.2498 65.9405 24.1605 65.7786 20.748C65.6167 17.3355 65.0746 15.0181 64.2765 12.9835C63.4541 10.8798 62.3565 9.0987 60.576 7.3227C58.7955 5.54669 57.0086 4.45549 54.9011 3.64397C52.8646 2.85612 50.5381 2.31916 47.132 2.17196C43.7259 2.02476 42.6296 1.987 33.9389 2.00364C25.2483 2.02028 24.1603 2.0574 20.7471 2.2238ZM21.1209 60.0723C18.0009 59.9366 16.3068 59.4182 15.1778 58.9843C13.6827 58.4083 12.6178 57.712 11.4926 56.5977C10.3675 55.4835 9.67629 54.4147 9.0926 52.9229C8.6542 51.7939 8.12619 50.1017 7.98027 46.9817C7.82155 43.6095 7.78827 42.5971 7.76971 34.0537C7.75115 25.5103 7.78379 24.4991 7.93163 21.1256C8.06475 18.0082 8.58636 16.3122 9.01964 15.1838C9.59565 13.6869 10.2894 12.6238 11.4062 11.4994C12.523 10.3749 13.5886 9.68239 15.0818 9.0987C16.2095 8.65838 17.9017 8.13486 21.0204 7.98638C24.3952 7.82638 25.4064 7.79438 33.9485 7.77582C42.4907 7.75726 43.5045 7.78926 46.8805 7.93774C49.998 8.07342 51.6946 8.5899 52.8217 9.02574C54.3174 9.60175 55.3817 10.2936 56.5062 11.4123C57.6307 12.531 58.3238 13.5928 58.9075 15.0891C59.3485 16.2136 59.872 17.9051 60.0192 21.0258C60.1798 24.4005 60.2163 25.4124 60.2317 33.9538C60.247 42.4953 60.217 43.5097 60.0691 46.8819C59.9328 50.0019 59.4157 51.6966 58.9811 52.8269C58.4051 54.3213 57.7107 55.3869 56.5932 56.5107C55.4758 57.6345 54.4115 58.327 52.9177 58.9107C51.7913 59.3504 50.0972 59.8752 46.981 60.0237C43.6062 60.1824 42.595 60.2157 34.0497 60.2342C25.5043 60.2528 24.4963 60.2182 21.1215 60.0723M47.2082 16.8971C47.2095 17.6567 47.4359 18.3988 47.859 19.0296C48.2821 19.6604 48.8827 20.1516 49.5849 20.441C50.2872 20.7304 51.0594 20.8051 51.8041 20.6556C52.5488 20.5061 53.2324 20.1391 53.7685 19.601C54.3046 19.063 54.6691 18.378 54.8159 17.6328C54.9627 16.8876 54.8851 16.1156 54.5931 15.4144C54.3011 14.7133 53.8077 14.1144 53.1754 13.6937C52.543 13.273 51.8001 13.0492 51.0405 13.0507C50.0223 13.0528 49.0466 13.4591 48.3279 14.1804C47.6093 14.9017 47.2065 15.8789 47.2082 16.8971ZM17.5695 34.0319C17.5874 43.1071 24.9577 50.4473 34.0311 50.43C43.1045 50.4128 50.4498 43.0431 50.4325 33.9679C50.4153 24.8927 43.043 17.5506 33.9684 17.5685C24.8937 17.5864 17.5522 24.958 17.5695 34.0319ZM23.3334 34.0204C23.3292 31.9107 23.9507 29.8471 25.1194 28.0906C26.288 26.3341 27.9512 24.9637 29.8988 24.1524C31.8463 23.3412 33.9907 23.1257 36.0607 23.5332C38.1307 23.9407 40.0334 24.9529 41.5281 26.4417C43.0229 27.9306 44.0426 29.8292 44.4582 31.8976C44.8739 33.9659 44.6669 36.1111 43.8634 38.0618C43.0599 40.0125 41.696 41.6812 39.9442 42.8567C38.1923 44.0323 36.1312 44.662 34.0215 44.6662C32.6206 44.6691 31.2329 44.3961 29.9376 43.8626C28.6423 43.3292 27.4647 42.5458 26.4722 41.5572C25.4797 40.5686 24.6917 39.3942 24.1531 38.101C23.6145 36.8079 23.336 35.4212 23.3334 34.0204Z" fill="black"/>
</svg>
