<svg width="32" height="32" viewBox="0 0 32 32" fill="none" xmlns="http://www.w3.org/2000/svg">
<rect width="32" height="32" fill="white"/>
<path d="M18.1368 23.8476C17.6276 23.8647 16.7931 23.5243 17.3203 22.9373C17.5498 22.6814 17.7123 22.466 17.7682 22.1124C17.8027 21.8941 17.8601 21.2344 17.6845 21.0869C17.3509 21.9786 17.4239 23.0872 16.2339 23.2718C15.8327 23.3343 15.3522 23.3406 15.1217 22.9597C14.8844 22.5681 14.8751 22.0934 14.6286 21.7091C14.5191 22.2296 14.8654 23.0613 14.3679 23.4417C13.6783 23.9696 12.9303 23.3602 12.6789 22.7112C12.3545 21.8746 12.0243 21.2012 11.324 20.6083C11.0279 20.3578 10.6276 20.1566 10.5946 19.7239C10.5649 19.3337 10.8455 18.9704 11.0527 18.6671C11.2735 18.3433 11.5322 18.0366 11.9519 18.0103C12.4387 17.9795 12.7738 18.3697 13.2202 18.4786C13.7225 18.6012 14.1991 18.4283 14.6825 18.3116C15.2238 18.1807 15.7232 18.3311 16.2587 18.419C17.2454 18.5807 18.4058 18.2164 19.2996 18.7848C19.6108 18.9826 19.835 19.2775 20.0398 19.5789C20.2805 19.9329 20.6598 20.3324 20.7974 20.7377C20.9399 21.1582 20.7522 21.5308 20.546 21.8897C20.3398 22.2487 20.2046 22.6423 19.9936 22.9964C19.5749 23.6991 18.9091 23.8466 18.1363 23.8471L18.1368 23.8476ZM14.1763 20.264C14.2055 20.6176 14.665 20.6234 14.6748 20.2591C14.685 19.8665 14.2064 19.8792 14.1763 20.264ZM17.9243 19.9202C17.9258 20.0223 17.8835 20.1834 18.042 20.1605C18.2803 20.1258 18.059 19.8904 18.0031 19.8152C17.9671 19.8636 17.9306 19.9119 17.9243 19.9202Z" fill="black"/>
<path d="M14.6587 23.7326C15.6139 23.5353 16.5213 23.8928 17.4161 24.0378C17.972 24.1281 18.2497 24.7703 17.9117 25.4677C17.67 25.9653 17.9102 26.5597 17.6987 27.1037C17.4657 27.7024 16.8968 27.9734 16.5544 28.4545C16.5476 28.4642 16.5033 28.4603 16.5028 28.4589C16.478 28.266 16.4138 28.0667 16.4401 27.8806C16.534 27.2214 16.5588 26.5636 16.4839 25.9023C16.479 25.8598 16.4275 25.8222 16.3978 25.7827C16.371 25.8159 16.3258 25.8462 16.321 25.8823C16.1882 26.8483 16.0491 27.8137 15.9339 28.7821C15.8697 29.3228 14.0786 30.2809 13.6812 29.9225C13.3408 29.6153 13.7274 29.2568 13.8738 28.9736C14.4059 27.9461 14.2828 26.8932 14.0246 25.8496C13.8495 25.1415 13.1473 24.4119 14.2677 23.8825C14.3937 23.8229 14.5284 23.7824 14.6587 23.7331V23.7326Z" fill="black"/>
<path d="M9.67596 6.22659C9.52423 7.35127 10.0242 8.57703 10.6695 9.80134C11.1432 10.6999 10.4283 11.891 9.52229 11.8319C8.74516 11.7811 8.9567 10.9959 8.69896 10.5563C8.59683 10.383 8.52437 10.1915 8.43878 10.0084C8.39842 10.213 8.32839 10.4167 8.32498 10.6218C8.31817 11.0007 8.35367 11.3802 8.36389 11.7596C8.36535 11.8217 8.34735 11.9174 8.30553 11.9418C7.97435 12.1357 7.62323 12.0605 7.3047 11.9335C6.17742 11.4832 6.54021 10.5163 6.61462 9.7022C6.743 8.28988 7.50068 7.14469 8.32304 6.04346C8.61288 5.65521 9.01166 5.40176 9.42405 5.17077C9.60739 5.06821 9.67742 5.27088 9.67596 6.2261V6.22659Z" fill="black"/>
<path d="M9.34721 17.9658C9.65456 16.636 8.8108 15.6891 8.36047 14.6459C8.00449 13.8221 7.6631 13.0305 8.71694 12.6144C9.31608 12.378 10.0105 12.4093 10.597 12.0039C10.8674 11.8174 11.1373 12.1509 11.1976 12.4156C11.3489 13.0754 11.4486 13.7381 10.5542 14.014C10.2756 14.1 10.0791 14.3656 9.95802 14.6528C10.1652 14.5844 10.3719 14.5146 10.5795 14.4472C10.8864 14.3476 11.2253 13.9051 11.4923 14.4408C11.7083 14.874 12.1279 15.4019 11.2555 15.6812C11.0503 15.7472 10.9029 15.9957 10.7288 16.1608C11.0128 16.071 11.3046 16.0011 11.5774 15.8844C11.7457 15.8121 11.8532 15.839 11.9164 15.9865C12.0273 16.2448 12.1372 16.4748 12.4022 16.6379C12.6327 16.7796 12.571 17.0716 12.4927 17.2918C12.4314 17.4647 12.2743 17.6327 12.071 17.5936C11.1821 17.4222 10.8256 18.3037 10.1584 18.5396C9.6813 18.7081 9.41286 18.4004 9.34623 17.9658H9.34721Z" fill="black"/>
<path d="M14.7667 15.2456C14.5055 14.5541 15.378 14.7075 15.7519 14.4433C15.2024 14.1879 14.6898 13.9901 14.5634 13.3005C14.5109 13.0158 14.5853 12.6227 14.9257 12.5626C15.2379 12.5074 15.7072 12.7487 16.0393 12.7658C16.5441 12.7912 17.8538 12.4547 18.0857 13.1218C18.1845 13.405 18.0006 13.6922 17.8971 13.9413C17.7341 14.3324 17.6281 14.7436 17.5698 15.1631C17.5187 15.5318 17.4574 15.9694 17.5148 16.34C17.5693 16.6951 17.8382 16.9871 17.7142 17.3675C17.6344 17.6122 17.4735 17.7236 17.2196 17.7152C16.7795 17.7001 16.4089 17.5204 15.9474 17.5702C15.3716 17.6327 14.4982 18.0302 14.5099 17.1219C14.5186 16.4426 15.1144 16.3928 15.6372 16.131C15.3984 16.11 14.9626 16.1677 14.8099 15.9293C14.6937 15.7482 14.7851 15.4459 14.7662 15.2456H14.7667Z" fill="black"/>
<path d="M17.778 7.593C17.0291 7.63598 16.6483 7.35518 16.6138 6.59774C16.5987 6.2681 16.4737 5.77682 16.143 5.75972C15.9635 5.75045 16.1304 6.30522 16.1921 6.57967C16.3006 7.05874 16.2976 7.42745 15.7005 7.42208C15.1251 7.41671 14.3743 8.03399 14.0441 7.02798C13.9322 6.68711 14.0037 6.36724 14.2469 6.0625C15.0853 5.0101 14.9131 3.75747 14.8971 2.53806C14.8951 2.37153 14.8664 2.13809 14.9583 2.05165C15.1125 1.9071 15.2706 2.10244 15.4179 2.19279C16.9182 3.11041 17.5966 4.57498 18.0654 6.18313C18.1213 6.37456 18.2322 6.5489 18.3086 6.73497C18.5449 7.30927 18.4948 7.69458 17.7775 7.593H17.778Z" fill="black"/>
<path d="M15.769 10.4803C15.1203 10.7567 14.9189 10.4304 14.7609 9.85028C14.6077 9.28818 14.0849 8.82034 14.6904 8.33247C15.2676 7.86756 16.3477 8.0546 17.0261 8.09953C17.4079 8.12444 17.7031 8.13323 17.9467 8.46286C18.1373 8.72072 18.2088 9.0528 18.1694 9.3673C18.1159 9.79851 17.9808 10.1721 17.9973 10.6194C18.0099 10.9603 18.1281 11.3456 18.0128 11.6797C17.7979 12.3023 16.993 12.1954 16.4756 12.1748C15.9144 12.1519 14.7468 12.3848 14.7614 11.5771C14.7764 10.7572 15.5161 10.805 16.1386 10.5823C16.0224 10.5501 15.9066 10.5183 15.7685 10.4803H15.769Z" fill="black"/>
<path d="M22.3756 5.16583C22.4475 5.04276 22.2691 4.88893 22.3216 4.76733C22.4096 4.56271 22.7048 4.65892 22.8507 4.73705C23.2772 4.96511 23.656 5.47007 23.9425 5.84855C24.529 6.62308 25.1213 7.73213 25.166 8.72739C25.1967 9.41255 24.1137 9.72363 23.552 9.67626C22.8774 9.61913 23.3127 8.75034 23.178 8.33622C22.9353 8.67074 22.9324 9.52683 22.467 9.62792C22.04 9.7207 21.543 9.17033 21.5605 8.77623C21.5727 8.4964 21.7759 8.25564 21.8771 8.00121C22.0001 7.6911 22.0779 7.36586 22.1368 7.03818C22.2472 6.41992 22.3221 5.79141 22.3756 5.16583Z" fill="black"/>
<path d="M24.7896 10.858C24.6223 11.6105 24.5114 12.41 24.528 13.246C24.5382 13.7627 24.0315 13.5713 23.6507 13.5107C23.1687 13.4346 22.6659 13.4897 22.1723 13.4927C21.951 13.4941 21.7954 13.3691 21.8503 13.1723C21.9792 12.7074 21.8815 12.0623 22.68 12.0662C22.9762 12.0676 23.0924 11.887 22.9163 11.8459C22.7335 11.8034 22.5453 11.7834 22.3619 11.7419C22.0064 11.6609 21.8017 10.3687 22.1066 10.1587C22.254 10.0576 22.3979 10.0659 22.5399 10.1587C22.625 10.2143 22.6931 10.3022 22.7836 10.3428C23.2188 10.5371 23.6414 10.3189 24.0674 10.2778C24.4881 10.2373 24.7663 10.3189 24.7896 10.858Z" fill="black"/>
<path d="M20.973 15.9386C21.1486 15.3726 21.7147 15.6314 22.1154 15.4624C21.8207 15.334 21.3611 15.3521 21.454 14.9291C21.4832 14.7963 21.5907 14.703 21.5979 14.5609C21.6038 14.4462 21.5201 14.3661 21.5192 14.2606C21.5172 14.1058 21.5975 13.9432 21.7453 13.8894C21.9364 13.8196 22.3216 13.9837 22.5263 13.991C22.8429 14.0023 23.1342 13.9363 23.4425 13.8807C23.9731 13.7844 24.3845 14.1068 24.156 14.661C23.9507 15.1587 23.6847 15.5806 23.7299 16.1447C23.7582 16.4982 23.8447 17.2073 23.2441 17.1282C23.0214 17.0989 22.8828 16.8796 22.7101 16.7605C22.483 16.6037 22.2258 16.5519 21.9578 16.5119C21.561 16.4523 20.9181 16.5046 20.973 15.9395V15.9386Z" fill="black"/>
<path d="M21.5167 19.6069C21.2138 19.5918 21.0727 19.1918 20.9142 18.8768C20.6895 18.4295 20.1327 18.3787 19.9255 17.9568C19.8574 17.8186 19.8827 17.5138 20.0471 17.5104C20.5179 17.5006 20.5042 16.4238 21.3106 17.046C21.8027 17.4259 22.7155 17.2057 22.892 18.1296C22.9801 18.5897 22.1606 19.6186 21.5163 19.6069H21.5167Z" fill="black"/>
</svg>
